<svg width="138" height="32" viewBox="0 0 138 32" fill="none" xmlns="http://www.w3.org/2000/svg">
<path fill-rule="evenodd" clip-rule="evenodd" d="M15.9991 0C16.7247 0 17.4372 0.053647 18.1374 0.146823L11.5652 11.952L6.48378 3.13788C7.36943 2.48188 8.32566 1.91717 9.33836 1.45317L11.4692 5.30164L14.4113 0.0790587C14.9336 0.0272941 15.4626 0 15.9991 0ZM29.0381 6.73312C29.7675 7.75806 30.3793 8.87147 30.8536 10.0555L17.5068 9.97829L22.5459 1.40137C23.5746 1.86348 24.5459 2.42913 25.4456 3.08795L23.2762 6.66818L29.0381 6.73312ZM27.5152 17.8399L31.8841 17.8879C31.9566 17.2686 31.999 16.639 31.999 15.9999C31.999 15.5124 31.9735 15.0315 31.9312 14.5562L21.7317 14.5543L28.5477 25.9208C29.3382 24.9213 30.0121 23.8267 30.5495 22.654L27.5152 17.8399ZM1.2527 9.78261C1.76188 8.57697 2.41411 7.44662 3.1887 6.41321L9.69786 17.8306L0.108235 17.8391C0.0395293 17.2348 0 16.6221 0 15.9991C0 15.4946 0.0254117 14.9967 0.0715293 14.5035L3.9087 14.5572L1.2527 9.78261ZM1.39577 22.5356C1.93129 23.7309 2.60894 24.8471 3.408 25.8655L8.34822 25.8843L6.47529 28.8565C7.40046 29.5436 8.40375 30.129 9.46728 30.6052L14.064 22.4819L1.39577 22.5356ZM15.999 32C15.2715 32 14.5562 31.9464 13.8541 31.8522L20.0865 20.7878L25.2508 29.0494C24.3303 29.7035 23.3392 30.2645 22.2889 30.7144L20.3237 27.4344L17.7741 31.8993C17.1905 31.9642 16.5995 32 15.999 32Z" fill="#001AFF"/>
<path d="M134.998 17.7227V22.6667H132.838V13.4827H134.902V15.4347C134.988 15.2533 135.11 15.0507 135.27 14.8267C135.43 14.6027 135.622 14.3947 135.846 14.2027C136.07 14 136.321 13.8293 136.598 13.6907C136.886 13.552 137.196 13.4827 137.526 13.4827H137.83V15.9467C137.788 15.9253 137.718 15.9093 137.622 15.8987C137.526 15.8773 137.446 15.8667 137.382 15.8667C137.02 15.8667 136.689 15.9307 136.39 16.0587C136.102 16.176 135.852 16.3253 135.638 16.5067C135.436 16.688 135.276 16.8907 135.158 17.1147C135.052 17.328 134.998 17.5307 134.998 17.7227Z" fill="black"/>
<path d="M126.455 13.0187C127.223 13.0187 127.932 13.152 128.583 13.4187C129.234 13.6853 129.794 14.048 130.263 14.5067C130.743 14.9547 131.116 15.488 131.383 16.1067C131.65 16.7253 131.783 17.3813 131.783 18.0747C131.783 18.768 131.65 19.424 131.383 20.0427C131.116 20.6613 130.743 21.2 130.263 21.6587C129.794 22.1067 129.234 22.464 128.583 22.7307C127.932 22.9973 127.223 23.1307 126.455 23.1307C125.698 23.1307 124.988 22.9973 124.327 22.7307C123.676 22.464 123.116 22.1067 122.647 21.6587C122.178 21.2 121.804 20.6613 121.527 20.0427C121.26 19.424 121.127 18.768 121.127 18.0747C121.127 17.3813 121.26 16.7253 121.527 16.1067C121.804 15.488 122.178 14.9547 122.647 14.5067C123.116 14.048 123.676 13.6853 124.327 13.4187C124.988 13.152 125.698 13.0187 126.455 13.0187ZM126.455 14.8587C126.018 14.8587 125.612 14.944 125.239 15.1147C124.866 15.2853 124.54 15.5147 124.263 15.8027C123.996 16.0907 123.783 16.432 123.623 16.8267C123.474 17.2213 123.399 17.6373 123.399 18.0747C123.399 18.512 123.474 18.928 123.623 19.3227C123.783 19.7173 123.996 20.0587 124.263 20.3467C124.54 20.6347 124.866 20.864 125.239 21.0347C125.612 21.2053 126.018 21.2907 126.455 21.2907C126.892 21.2907 127.298 21.2053 127.671 21.0347C128.055 20.864 128.38 20.6347 128.647 20.3467C128.924 20.0587 129.138 19.7173 129.287 19.3227C129.447 18.928 129.527 18.512 129.527 18.0747C129.527 17.6373 129.447 17.2213 129.287 16.8267C129.138 16.432 128.924 16.0907 128.647 15.8027C128.38 15.5147 128.055 15.2853 127.671 15.1147C127.298 14.944 126.892 14.8587 126.455 14.8587Z" fill="black"/>
<path d="M117.424 13.1627C117.819 13.1627 118.192 13.2054 118.544 13.2907C118.907 13.3654 119.221 13.4561 119.488 13.5627V15.4827C119.147 15.3121 118.805 15.1841 118.464 15.0987C118.133 15.0134 117.845 14.9707 117.6 14.9707C117.237 14.9707 116.949 15.0401 116.736 15.1787C116.533 15.3067 116.432 15.4881 116.432 15.7227C116.432 15.8827 116.533 16.0587 116.736 16.2507C116.939 16.432 117.264 16.6667 117.712 16.9547C118.8 17.6587 119.525 18.2614 119.888 18.7627C120.261 19.264 120.448 19.776 120.448 20.2987C120.448 21.088 120.149 21.728 119.552 22.2187C118.955 22.7094 118.133 22.96 117.088 22.9707C116.693 22.9707 116.24 22.9067 115.728 22.7787C115.216 22.6507 114.763 22.5014 114.368 22.3307V20.4107C114.859 20.656 115.317 20.8374 115.744 20.9547C116.171 21.072 116.517 21.1307 116.784 21.1307C117.275 21.1307 117.627 21.0454 117.84 20.8747C118.064 20.704 118.176 20.5014 118.176 20.2667C118.176 20.1174 118.069 19.9307 117.856 19.7067C117.643 19.4827 117.163 19.1307 116.416 18.6507C115.947 18.3414 115.563 18.064 115.264 17.8187C114.976 17.5627 114.747 17.3227 114.576 17.0987C114.416 16.864 114.304 16.6294 114.24 16.3947C114.187 16.1494 114.16 15.8881 114.16 15.6107C114.16 15.3121 114.219 15.0187 114.336 14.7307C114.464 14.4321 114.656 14.1707 114.912 13.9467C115.179 13.7121 115.52 13.5254 115.936 13.3867C116.352 13.2374 116.848 13.1627 117.424 13.1627Z" fill="black"/>
<path d="M106.842 17.1307V22.6667H104.682V13.4827H106.746V14.4907C107.045 14.16 107.45 13.8667 107.962 13.6107C108.485 13.3547 109.082 13.2267 109.754 13.2267C110.725 13.2267 111.514 13.5307 112.122 14.1387C112.741 14.7467 113.05 15.5787 113.05 16.6347V22.6667H110.89V17.2907C110.89 16.4907 110.687 15.9307 110.282 15.6107C109.887 15.2907 109.423 15.1307 108.89 15.1307C108.666 15.1307 108.431 15.1733 108.186 15.2587C107.941 15.344 107.717 15.472 107.514 15.6427C107.322 15.8133 107.162 16.0267 107.034 16.2827C106.906 16.528 106.842 16.8107 106.842 17.1307Z" fill="black"/>
<path d="M98.6969 14.8587C98.0249 14.8587 97.4649 15.0507 97.0169 15.4347C96.5796 15.808 96.2809 16.3147 96.1209 16.9547H101.257C101.097 16.3147 100.798 15.808 100.361 15.4347C99.9236 15.0507 99.3689 14.8587 98.6969 14.8587ZM103.561 21.4507C103.06 21.9093 102.457 22.3093 101.753 22.6507C101.06 22.9813 100.19 23.1467 99.1449 23.1467C98.3236 23.1467 97.5769 23.0187 96.9049 22.7627C96.2329 22.5067 95.6623 22.1547 95.1929 21.7067C94.7236 21.248 94.3609 20.7093 94.1049 20.0907C93.8489 19.472 93.7209 18.8 93.7209 18.0747C93.7209 17.3493 93.8436 16.6773 94.0889 16.0587C94.3449 15.44 94.6916 14.9067 95.1289 14.4587C95.5769 14.0107 96.1049 13.6587 96.7129 13.4027C97.3209 13.1467 97.9823 13.0187 98.6969 13.0187C99.4009 13.0187 100.057 13.1467 100.665 13.4027C101.284 13.6587 101.812 14.0107 102.249 14.4587C102.686 14.9067 103.028 15.44 103.273 16.0587C103.529 16.6773 103.657 17.3493 103.657 18.0747V18.6187H96.0249C96.1209 19.44 96.4303 20.0907 96.9529 20.5707C97.4863 21.0507 98.2169 21.2907 99.1449 21.2907C99.8489 21.2907 100.457 21.1787 100.969 20.9547C101.481 20.7307 101.913 20.4427 102.265 20.0907L103.561 21.4507Z" fill="black"/>
<path d="M89.2597 22.6666V12.8106H86.7317V10.7306H94.1077V12.8106H91.5797V22.6666H89.2597Z" fill="black"/>
<path d="M81.7438 14.8587C81.0718 14.8587 80.5118 15.0507 80.0638 15.4347C79.6265 15.808 79.3278 16.3147 79.1678 16.9547H84.3038C84.1438 16.3147 83.8451 15.808 83.4078 15.4347C82.9705 15.0507 82.4158 14.8587 81.7438 14.8587ZM86.6078 21.4507C86.1065 21.9093 85.5038 22.3093 84.7998 22.6507C84.1065 22.9813 83.2371 23.1467 82.1918 23.1467C81.3705 23.1467 80.6238 23.0187 79.9518 22.7627C79.2798 22.5067 78.7092 22.1547 78.2398 21.7067C77.7705 21.248 77.4078 20.7093 77.1518 20.0907C76.8958 19.472 76.7678 18.8 76.7678 18.0747C76.7678 17.3493 76.8905 16.6773 77.1358 16.0587C77.3918 15.44 77.7385 14.9067 78.1758 14.4587C78.6238 14.0107 79.1518 13.6587 79.7598 13.4027C80.3678 13.1467 81.0291 13.0187 81.7438 13.0187C82.4478 13.0187 83.1038 13.1467 83.7118 13.4027C84.3305 13.6587 84.8585 14.0107 85.2958 14.4587C85.7331 14.9067 86.0745 15.44 86.3198 16.0587C86.5758 16.6773 86.7038 17.3493 86.7038 18.0747V18.6187H79.0718C79.1678 19.44 79.4772 20.0907 79.9998 20.5707C80.5332 21.0507 81.2638 21.2907 82.1918 21.2907C82.8958 21.2907 83.5038 21.1787 84.0158 20.9547C84.5278 20.7307 84.9598 20.4427 85.3118 20.0907L86.6078 21.4507Z" fill="black"/>
<path d="M69.5296 17.1306V22.6666H67.3696V10.1866H69.4336V14.4906C69.7323 14.16 70.1376 13.8666 70.6496 13.6106C71.1723 13.3546 71.7696 13.2266 72.4416 13.2266C73.4123 13.2266 74.2016 13.5306 74.8096 14.1386C75.4283 14.7466 75.7376 15.5786 75.7376 16.6346V22.6666H73.5776V17.2906C73.5776 16.4906 73.375 15.9306 72.9696 15.6106C72.575 15.2906 72.111 15.1306 71.5776 15.1306C71.3536 15.1306 71.119 15.1733 70.8736 15.2586C70.6283 15.344 70.4043 15.472 70.2016 15.6426C70.0096 15.8133 69.8496 16.0266 69.7216 16.2826C69.5936 16.528 69.5296 16.8106 69.5296 17.1306Z" fill="black"/>
<path d="M66.1178 20.5546V22.5066C66.0111 22.5812 65.8671 22.6452 65.6858 22.6986C65.5045 22.7626 65.3071 22.8159 65.0938 22.8586C64.8911 22.9012 64.6831 22.9279 64.4698 22.9386C64.2671 22.9599 64.0805 22.9706 63.9098 22.9706C63.1418 22.9706 62.4272 22.8479 61.7658 22.6026C61.1045 22.3466 60.5338 21.9999 60.0538 21.5626C59.5738 21.1252 59.1952 20.6079 58.9178 20.0106C58.6512 19.4132 58.5178 18.7679 58.5178 18.0746C58.5178 17.3919 58.6512 16.7519 58.9178 16.1546C59.1952 15.5573 59.5738 15.0399 60.0538 14.6026C60.5338 14.1546 61.1045 13.8079 61.7658 13.5626C62.4272 13.3066 63.1418 13.1786 63.9098 13.1786C64.0805 13.1786 64.2671 13.1893 64.4698 13.2106C64.6831 13.2213 64.8911 13.2479 65.0938 13.2906C65.2965 13.3333 65.4885 13.3866 65.6698 13.4506C65.8618 13.5039 66.0111 13.5679 66.1178 13.6426V15.5946H66.0538C65.7551 15.3493 65.4031 15.1946 64.9978 15.1306C64.6031 15.0559 64.2405 15.0186 63.9098 15.0186C63.0138 15.0186 62.2672 15.3119 61.6698 15.8986C61.0832 16.4853 60.7898 17.2106 60.7898 18.0746C60.7898 18.9492 61.0832 19.6799 61.6698 20.2666C62.2672 20.8426 63.0138 21.1306 63.9098 21.1306C64.2405 21.1306 64.6031 21.0932 64.9978 21.0186C65.4031 20.9439 65.7551 20.7892 66.0538 20.5546H66.1178Z" fill="black"/>
<path d="M57.4686 10.1866V12.1866H55.2446V10.1866H57.4686ZM57.4366 13.4826V22.6666H55.2766V13.4826H57.4366Z" fill="black"/>
<path d="M51.4817 22.6666L45.7697 14.6826V22.6666H43.4497V10.7306H45.7057L51.4337 18.8106V10.7306H53.7537V22.6666H51.4817Z" fill="black"/>
</svg>
